<?xml version="1.0" encoding="utf-8"?>
<!DOCTYPE svg PUBLIC "-//W3C//DTD SVG 1.1//EN" "http://www.w3.org/Graphics/SVG/1.1/DTD/svg11.dtd">
<svg version="1.1"
	 id="svg1468" sodipodi:version="0.32" sodipodi:docbase="C:\Documents and Settings\Jarno\Omat tiedostot\vanhasta\opencliparts\omat\symbols" inkscape:version="0.42" sodipodi:docname="pen1.svg" xmlns:ns1="http://sozi.baierouge.fr" xmlns:sodipodi="http://inkscape.sourceforge.net/DTD/sodipodi-0.dtd" xmlns:cc="http://web.resource.org/cc/" xmlns:svg="http://www.w3.org/2000/svg" xmlns:dc="http://purl.org/dc/elements/1.1/" xmlns:inkscape="http://www.inkscape.org/namespaces/inkscape" xmlns:rdf="http://www.w3.org/1999/02/22-rdf-syntax-ns#"
	 xmlns="http://www.w3.org/2000/svg" xmlns:xlink="http://www.w3.org/1999/xlink" x="0px" y="0px" width="32.155px" height="32px"
	 viewBox="454.71 271.918 32.155 32" enable-background="new 454.71 271.918 32.155 32" xml:space="preserve">
<g id="layer1">
	<g id="g2668" transform="matrix(.83316 0 0 .83316 420 -144.85)">
		<g id="path2656">
			<path d="M41.661,538.634l4.268-15.947l20.344-19.999c0.282-0.267,2.703-2.461,5.919-2.461c1.997,0,3.847,0.829,5.496,2.465
				c1.722,1.711,2.586,3.605,2.568,5.629c-0.029,3.322-2.477,5.714-2.581,5.813l-20.759,20.408L41.661,538.634z M47.927,523.851
				l-3.111,11.625l10.953-2.939l20.35-20.006c0.025-0.025,1.893-1.872,1.905-4.248c0.007-1.394-0.635-2.742-1.909-4.009
				c-1.215-1.205-2.535-1.816-3.923-1.816c-2.394,0-4.291,1.762-4.371,1.837L47.927,523.851z"/>
		</g>
		<g id="path2658_1_">
			<path d="M56.81,532.89c-1.247,0-2.713-0.236-3.62-1.171c-1.673-1.737-1.026-4.763-0.946-5.102l2.173,0.509
				c-0.125,0.553-0.328,2.308,0.379,3.044c0.567,0.586,2.546,0.56,3.755,0.315l0.444,2.188
				C58.689,532.734,57.822,532.89,56.81,532.89z"/>
		</g>
		<g id="path2662">
			<rect x="44.505" y="532.468" transform="matrix(0.6859 0.7277 -0.7277 0.6859 403.5603 134.9609)" width="1.86" height="5.031"/>
		</g>
		<g id="path2664">
			<path d="M54.307,527.762l-1.577-1.581c2.647-2.638,23.379-23.485,23.379-23.485l1.583,1.574
				C77.693,504.27,56.954,525.123,54.307,527.762z"/>
		</g>
	</g>
</g>
<g id="path2658_2_">
	<path d="M462.797,295.21c-1.039,0-2.261-0.195-3.016-0.976c-1.394-1.447-0.855-3.968-0.789-4.251l1.811,0.424
		c-0.105,0.461-0.274,1.923,0.315,2.536c0.473,0.487,2.122,0.467,3.129,0.263l0.37,1.823
		C464.363,295.081,463.641,295.21,462.797,295.21z"/>
</g>
</svg>
