<?xml version="1.0" encoding="utf-8"?>
<!DOCTYPE svg PUBLIC "-//W3C//DTD SVG 1.1//EN" "http://www.w3.org/Graphics/SVG/1.1/DTD/svg11.dtd">
<svg version="1.1" id="Layer_1" xmlns="http://www.w3.org/2000/svg" xmlns:xlink="http://www.w3.org/1999/xlink" x="0px" y="0px"
	 width="27.999px" height="31.998px" viewBox="423.473 484.033 27.999 31.998"
	 enable-background="new 423.473 484.033 27.999 31.998" xml:space="preserve">
<path d="M423.473,493.033v-2.188c0.042-0.792,0.354-1.458,0.938-2c0.583-0.542,1.271-0.812,2.062-0.812h3v-1
	c0-0.833,0.292-1.542,0.875-2.125c0.583-0.583,1.292-0.875,2.125-0.875h9.999c0.834,0,1.542,0.292,2.125,0.875
	c0.583,0.583,0.875,1.292,0.875,2.125v1h3c0.792,0,1.479,0.271,2.062,0.812c0.583,0.542,0.896,1.208,0.938,2v2.188
	c0,0.542-0.198,1.01-0.594,1.406s-0.864,0.594-1.406,0.594v16.999c0,1.125-0.386,2.073-1.156,2.844s-1.719,1.156-2.844,1.156
	h-15.999c-1.125,0-2.073-0.386-2.843-1.156c-0.771-0.771-1.156-1.719-1.156-2.844v-16.999c-0.542,0-1.01-0.198-1.406-0.594
	S423.473,493.574,423.473,493.033z M425.473,493.033h23.999v-2c0-0.292-0.094-0.531-0.281-0.718s-0.427-0.281-0.719-0.281h-21.999
	c-0.292,0-0.531,0.094-0.719,0.281s-0.281,0.427-0.281,0.718V493.033L425.473,493.033z M427.473,512.031
	c0,0.542,0.198,1.011,0.594,1.406c0.396,0.396,0.864,0.594,1.406,0.594h15.999c0.542,0,1.011-0.197,1.406-0.594
	c0.396-0.396,0.594-0.864,0.594-1.406v-16.999h-19.999V512.031L427.473,512.031z M429.473,511.031v-12.999
	c0-0.292,0.094-0.531,0.281-0.719s0.427-0.281,0.719-0.281h2c0.292,0,0.531,0.094,0.719,0.281s0.281,0.427,0.281,0.719v12.999
	c0,0.292-0.094,0.531-0.281,0.719s-0.427,0.281-0.719,0.281h-2c-0.292,0-0.531-0.094-0.719-0.281S429.473,511.323,429.473,511.031
	L429.473,511.031z M430.473,511.031h2v-12.999h-2V511.031z M431.473,488.033h11.999v-1c0-0.292-0.094-0.531-0.281-0.719
	s-0.427-0.281-0.719-0.281h-9.999c-0.292,0-0.531,0.094-0.719,0.281s-0.281,0.427-0.281,0.719V488.033L431.473,488.033z
	 M435.473,511.031v-12.999c0-0.292,0.094-0.531,0.281-0.719s0.427-0.281,0.719-0.281h2c0.291,0,0.531,0.094,0.719,0.281
	s0.281,0.427,0.281,0.719v12.999c0,0.292-0.094,0.531-0.281,0.719s-0.428,0.281-0.719,0.281h-2c-0.292,0-0.531-0.094-0.719-0.281
	S435.473,511.323,435.473,511.031z M436.472,511.031h2v-12.999h-2V511.031z M441.472,511.031v-12.999
	c0-0.292,0.094-0.531,0.281-0.719s0.428-0.281,0.719-0.281h2c0.292,0,0.531,0.094,0.719,0.281s0.281,0.427,0.281,0.719v12.999
	c0,0.292-0.094,0.531-0.281,0.719s-0.427,0.281-0.719,0.281h-2c-0.291,0-0.531-0.094-0.719-0.281S441.472,511.323,441.472,511.031z
	 M442.472,511.031h2v-12.999h-2V511.031z"/>
</svg>
